<svg width="78" height="49" viewBox="0 0 78 49" fill="none" xmlns="http://www.w3.org/2000/svg">
<path d="M64.0039 40.5929C69.4066 37.6587 71.7302 32.2107 72.8205 27.0459C74.0462 21.2161 74.5851 14.3446 70.4173 9.43227C67.2064 5.65411 61.7637 3.73604 56.4028 3.62957C50.4985 3.51194 44.9214 5.79055 40.653 9.41098C36.2657 13.1359 33.2648 18.1204 31.933 23.2656C31.1305 26.3767 30.8634 29.7324 32.053 32.7399C32.6206 34.1497 33.5385 35.8888 35.1404 36.5849C37.1295 37.4531 39.1208 36.1457 40.4099 34.8323C42.6005 32.5956 43.9357 29.4726 44.8177 26.692C45.7682 23.6845 46.0573 20.413 44.819 17.498C42.7719 12.7234 36.8022 10.133 31.0955 10.3004C24.0567 10.4923 17.9428 14.7747 14.1653 19.7968C9.82935 25.5452 8.37491 32.4918 7.57822 39.1409C7.42148 40.426 5.15824 40.1632 5.31456 38.8746C6.16992 31.8507 7.80386 24.6397 12.3765 18.5716C16.2821 13.3884 22.6086 9.01805 29.7841 8.40385C36.0138 7.87879 42.6448 10.1678 45.7726 14.9482C49.5212 20.6845 47.1431 28.3698 43.3939 33.8604C41.9093 36.0368 39.4021 38.5579 36.2439 38.4093C32.8093 38.2487 30.95 35.0405 30.1673 32.5011C28.2658 26.349 30.7972 19.2108 34.5806 13.8063C38.0823 8.81031 43.469 4.54576 49.9795 2.93928C52.9172 2.21346 55.9756 2.02581 58.9599 2.38829C61.9442 2.75077 64.7889 3.65544 67.3127 5.04463C74.6258 9.16695 75.7755 16.7935 74.7047 23.982C73.7421 30.377 71.2935 37.5747 64.4237 41.0699C64.0485 41.2641 63.6244 40.8188 64.0117 40.592L64.0039 40.5929Z" fill="#525252"/>
<path d="M5.44751 40.9519C7.85958 39.6485 10.2375 38.0906 12.0974 36.2439L13.3049 37.2886C11.0328 38.7059 8.67755 40.0322 6.36247 41.3923C5.88742 41.6723 5.07793 41.5999 4.88342 41.0909C4.09484 38.938 3.49542 36.7342 3.08972 34.496C2.9102 33.4203 4.91725 33.1915 5.12381 34.2521C5.50746 36.3417 6.03445 38.4061 6.70226 40.4356L5.22321 40.1342C7.55462 38.79 9.86262 37.401 12.2398 36.1078C12.4322 35.9962 12.6655 35.9479 12.8918 35.9728C13.1181 35.9977 13.3204 36.094 13.4571 36.2419C13.5939 36.3897 13.6547 36.578 13.6272 36.7681C13.5997 36.9582 13.4859 37.1357 13.3092 37.2643C11.0932 38.9965 8.59395 40.4577 5.89321 41.6002C5.41543 41.7973 4.99244 41.1878 5.45357 40.9422L5.44751 40.9519Z" fill="#525252"/>
</svg>
