<svg width="59" height="60" viewBox="0 0 59 60" fill="none" xmlns="http://www.w3.org/2000/svg">
<path d="M29.5009 59.092C29.1754 59.092 28.8629 58.9628 28.6327 58.7327C28.4026 58.5025 28.2734 58.1903 28.2734 57.8648V1.22727C28.2734 0.901783 28.4026 0.589749 28.6327 0.359593C28.8629 0.129437 29.1754 0 29.5009 0C29.8264 0 30.1384 0.129437 30.3685 0.359593C30.5987 0.589749 30.7279 0.901783 30.7279 1.22727V57.8648C30.7279 58.1903 30.5987 58.5025 30.3685 58.7327C30.1384 58.9628 29.8264 59.092 29.5009 59.092Z" fill="#404040"/>
<path d="M57.8195 30.7743H1.18048C0.863361 30.7622 0.563184 30.6278 0.343118 30.3992C0.123052 30.1705 0 29.8653 0 29.548C0 29.2306 0.123052 28.9256 0.343118 28.697C0.563184 28.4683 0.863361 28.3339 1.18048 28.3218H57.8195C58.1366 28.3339 58.4368 28.4683 58.6569 28.697C58.8769 28.9256 59 29.2306 59 29.548C59 29.8653 58.8769 30.1705 58.6569 30.3992C58.4368 30.6278 58.1366 30.7622 57.8195 30.7743Z" fill="#404040"/>
<path d="M9.47535 50.8062C9.2329 50.8057 8.99621 50.7334 8.79483 50.5984C8.59344 50.4634 8.43666 50.2718 8.34407 50.0477C8.25148 49.8237 8.22732 49.5771 8.27466 49.3393C8.322 49.1015 8.43852 48.8832 8.60987 48.7117L48.6597 8.66206C48.8922 8.44404 49.2004 8.32483 49.5191 8.32993C49.8377 8.33503 50.1416 8.46395 50.367 8.6893C50.5923 8.91465 50.7213 9.21878 50.7264 9.53743C50.7315 9.85608 50.6123 10.1643 50.3942 10.3968L10.3448 50.4447C10.2311 50.5595 10.0955 50.6506 9.94631 50.7127C9.79711 50.7747 9.63696 50.8065 9.47535 50.8062Z" fill="#404040"/>
<path d="M49.5168 50.8043C49.356 50.8042 49.1966 50.7724 49.0481 50.7107C48.8995 50.6489 48.7644 50.5585 48.6509 50.4445L8.60146 10.3965C8.38343 10.1641 8.26422 9.85586 8.26932 9.53721C8.27442 9.21856 8.40335 8.91443 8.6287 8.68908C8.85404 8.46373 9.15839 8.33503 9.47704 8.32993C9.79569 8.32483 10.1035 8.44382 10.3359 8.66185L50.3858 48.7115C50.5573 48.8831 50.6742 49.1018 50.7215 49.3398C50.7687 49.5777 50.7444 49.8243 50.6516 50.0484C50.5588 50.2725 50.4016 50.4642 50.2 50.5991C49.9983 50.734 49.7612 50.8058 49.5186 50.806L49.5168 50.8043Z" fill="#404040"/>
</svg>
