<svg width="25" height="25" viewBox="0 0 25 25" fill="none" xmlns="http://www.w3.org/2000/svg">
<path d="M23.001 12.2644C23.001 11.4011 22.9296 10.7711 22.7748 10.1178H12.7153V14.0144H18.62C18.501 14.9828 17.8582 16.4411 16.4296 17.4211L16.4096 17.5515L19.5902 19.9662L19.8106 19.9878C21.8343 18.1561 23.001 15.4611 23.001 12.2644Z" fill="#4285F4"/>
<path d="M12.7145 22.5313C15.6073 22.5313 18.0358 21.5979 19.8097 19.9879L16.4287 17.4212C15.524 18.0395 14.3097 18.4712 12.7145 18.4712C9.88118 18.4712 7.47645 16.6395 6.61922 14.1078L6.49358 14.1183L3.18632 16.6267L3.14307 16.7445C4.90495 20.1745 8.52399 22.5313 12.7145 22.5313Z" fill="#34A853"/>
<path d="M6.61997 14.1079C6.39379 13.4546 6.26289 12.7545 6.26289 12.0312C6.26289 11.3079 6.39379 10.6079 6.60807 9.95456L6.60208 9.81542L3.25337 7.26678L3.14381 7.31786C2.41765 8.74121 2.00098 10.3396 2.00098 12.0312C2.00098 13.7229 2.41765 15.3212 3.14381 16.7445L6.61997 14.1079Z" fill="#FBBC05"/>
<path d="M12.7145 5.59122C14.7264 5.59122 16.0835 6.44288 16.8574 7.1546L19.8812 4.26125C18.0241 2.56959 15.6074 1.53125 12.7145 1.53125C8.52402 1.53125 4.90496 3.8879 3.14307 7.31787L6.60734 9.95457C7.47647 7.42291 9.88122 5.59122 12.7145 5.59122Z" fill="#EB4335"/>
</svg>
