<svg width="34" height="39" viewBox="0 0 34 39" fill="none" xmlns="http://www.w3.org/2000/svg">
<path d="M29.9766 13.2C29.8928 9.83537 28.4974 6.63673 26.088 4.28667C23.6787 1.9366 20.4463 0.621216 17.0806 0.621216C13.715 0.621216 10.4826 1.9366 8.07324 4.28667C5.66391 6.63673 4.26844 9.83537 4.18463 13.2C3.67055 13.2387 3.16931 13.3793 2.71003 13.6135C2.25075 13.8477 1.8426 14.1708 1.5093 14.5641C1.17601 14.9574 0.924216 15.413 0.768566 15.9045C0.612916 16.396 0.556514 16.9135 0.602634 17.427V24.162C0.557526 24.7382 0.637807 25.3173 0.83795 25.8594C1.03809 26.4016 1.35335 26.894 1.762 27.3026C2.17066 27.7113 2.66302 28.0265 3.20519 28.2267C3.74736 28.4268 4.32646 28.5071 4.90263 28.462H6.98063C7.17053 28.462 7.35265 28.3866 7.48692 28.2523C7.6212 28.118 7.69663 27.9359 7.69663 27.746V13.87C7.69663 13.6801 7.6212 13.498 7.48692 13.3637C7.35265 13.2294 7.17053 13.154 6.98063 13.154H5.62163C5.62163 10.1137 6.82939 7.1979 8.97922 5.04807C11.129 2.89825 14.0448 1.69049 17.0851 1.69049C20.1254 1.69049 23.0412 2.89825 25.1911 5.04807C27.3409 7.1979 28.5486 10.1137 28.5486 13.154H27.1826C26.9927 13.154 26.8106 13.2294 26.6763 13.3637C26.5421 13.498 26.4666 13.6801 26.4666 13.87V27.719C26.4666 27.9089 26.5421 28.091 26.6763 28.2253C26.8106 28.3596 26.9927 28.435 27.1826 28.435H28.5436C28.3436 33.357 25.9786 34.511 21.2576 34.718V34.238C21.2575 34.0496 21.2202 33.8632 21.148 33.6892C21.0757 33.5153 20.9699 33.3573 20.8365 33.2243C20.7031 33.0913 20.5449 32.9859 20.3707 32.9141C20.1966 32.8423 20.01 32.8056 19.8216 32.806H15.3216C14.9416 32.806 14.5771 32.957 14.3083 33.2257C14.0396 33.4944 13.8886 33.8589 13.8886 34.239V36.567C13.8886 36.947 14.0396 37.3115 14.3083 37.5803C14.5771 37.849 14.9416 38 15.3216 38H19.8426C20.2227 38 20.5872 37.849 20.8559 37.5803C21.1247 37.3115 21.2756 36.947 21.2756 36.567V36.151C25.8176 35.943 29.7446 35.005 29.9756 28.392C30.4897 28.3532 30.991 28.2127 31.4502 27.9785C31.9095 27.7443 32.3177 27.4212 32.651 27.0279C32.9843 26.6346 33.236 26.1789 33.3917 25.6875C33.5473 25.196 33.6038 24.6785 33.5576 24.165V17.431C33.6051 16.9171 33.5498 16.3989 33.3948 15.9067C33.2397 15.4145 32.9882 14.9581 32.6548 14.5642C32.3214 14.1703 31.9129 13.8468 31.453 13.6125C30.9932 13.3783 30.4913 13.2381 29.9766 13.2ZM6.26163 14.536V27H4.86163C4.47499 27.0421 4.08383 26.9969 3.71697 26.8677C3.35012 26.7386 3.01691 26.5287 2.7419 26.2537C2.46688 25.9787 2.25707 25.6455 2.12792 25.2787C1.99877 24.9118 1.95356 24.5206 1.99563 24.134V17.4C1.95356 17.0133 1.99877 16.6222 2.12792 16.2553C2.25707 15.8885 2.46688 15.5553 2.7419 15.2803C3.01691 15.0052 3.35012 14.7954 3.71697 14.6663C4.08383 14.5371 4.47499 14.4919 4.86163 14.534L6.26163 14.536ZM19.8386 35.485V36.574H15.3216V34.246H19.8426L19.8386 35.485ZM32.1216 24.158C32.1637 24.5446 32.1185 24.9358 31.9893 25.3027C31.8602 25.6695 31.6504 26.0027 31.3754 26.2777C31.1004 26.5527 30.7671 26.7626 30.4003 26.8917C30.0334 27.0209 29.6423 27.0661 29.2556 27.024H27.8986V14.586H29.2986C29.6853 14.5439 30.0764 14.5891 30.4433 14.7183C30.8101 14.8474 31.1434 15.0572 31.4184 15.3323C31.6934 15.6073 31.9032 15.9405 32.0323 16.3073C32.1615 16.6742 32.2067 17.0653 32.1646 17.452L32.1216 24.158Z" fill="#C09381" stroke="#C09381" stroke-width="0.5"/>
</svg>
