<svg width="26" height="34" viewBox="0 0 26 34" fill="none" xmlns="http://www.w3.org/2000/svg">
<path d="M22.671 34H3.54603C2.70094 33.9992 1.89067 33.6632 1.29301 33.0657C0.695341 32.4683 0.359091 31.6581 0.358032 30.813L0.358032 15.938C0.358827 15.0927 0.694959 14.2823 1.29265 13.6846C1.89035 13.0869 2.70077 12.7508 3.54603 12.75H22.671C23.5163 12.7508 24.3267 13.0869 24.9244 13.6846C25.5221 14.2823 25.8582 15.0927 25.859 15.938V30.813C25.858 31.6581 25.5217 32.4683 24.9241 33.0657C24.3264 33.6632 23.5161 33.9992 22.671 34ZM3.54603 14.875C3.26436 14.8755 2.99439 14.9877 2.79532 15.187C2.59624 15.3863 2.4843 15.6563 2.48403 15.938V30.813C2.4843 31.0948 2.59638 31.3651 2.79567 31.5644C2.99496 31.7637 3.26519 31.8757 3.54703 31.876H22.671C22.9527 31.8757 23.2228 31.7638 23.422 31.5647C23.6213 31.3656 23.7335 31.0957 23.734 30.814V15.938C23.7335 15.6565 23.6214 15.3867 23.4224 15.1876C23.2233 14.9886 22.9535 14.8765 22.672 14.876L3.54603 14.875Z" fill="#C09381"/>
<path d="M20.546 14.875C20.2644 14.8747 19.9945 14.7628 19.7954 14.5637C19.5963 14.3645 19.4843 14.0946 19.484 13.813V8.5C19.484 6.80925 18.8124 5.18774 17.6168 3.99219C16.4213 2.79665 14.7998 2.125 13.109 2.125C11.4183 2.125 9.79675 2.79665 8.6012 3.99219C7.40566 5.18774 6.73401 6.80925 6.73401 8.5V13.813C6.72554 14.0892 6.60988 14.3512 6.41154 14.5435C6.21321 14.7358 5.94779 14.8434 5.67151 14.8434C5.39523 14.8434 5.12981 14.7358 4.93147 14.5435C4.73314 14.3512 4.61748 14.0892 4.60901 13.813V8.5C4.60901 6.24566 5.50454 4.08365 7.0986 2.48959C8.69266 0.895533 10.8547 0 13.109 0C15.3633 0 17.5254 0.895533 19.1194 2.48959C20.7135 4.08365 21.609 6.24566 21.609 8.5V13.813C21.6087 14.0948 21.4966 14.3649 21.2973 14.564C21.098 14.7631 20.8278 14.875 20.546 14.875Z" fill="#C09381"/>
</svg>
