<svg width="45" height="40" viewBox="0 0 45 40" fill="none" xmlns="http://www.w3.org/2000/svg">
<path d="M28.079 31.696H17.568C17.4031 31.696 17.2449 31.6305 17.1282 31.5139C17.0116 31.3972 16.946 31.239 16.946 31.074C16.946 30.9091 17.0116 30.7509 17.1282 30.6342C17.2449 30.5176 17.4031 30.452 17.568 30.452H28.079C28.2935 30.4532 28.506 30.4119 28.7044 30.3306C28.9028 30.2492 29.0832 30.1294 29.235 29.978C29.263 29.95 29.287 29.923 29.31 29.898C29.3223 29.879 29.3357 29.8606 29.35 29.843C29.5919 29.5517 29.7239 29.1847 29.723 28.806C29.7225 28.3697 29.5489 27.9513 29.2404 27.6427C28.9318 27.3341 28.5134 27.1606 28.077 27.16H22.204C22.1177 27.1605 22.0322 27.1429 21.953 27.1085C21.8738 27.074 21.8026 27.0235 21.744 26.96C20.9603 26.0996 20.0057 25.4122 18.9413 24.9416C17.8768 24.471 16.7259 24.2276 15.562 24.227H8.01604C7.85108 24.227 7.69287 24.1615 7.57622 24.0449C7.45957 23.9282 7.39404 23.77 7.39404 23.605C7.39404 23.4401 7.45957 23.2819 7.57622 23.1652C7.69287 23.0486 7.85108 22.983 8.01604 22.983H15.567C16.8573 22.9839 18.1341 23.2444 19.3216 23.7489C20.5091 24.2535 21.5829 24.9919 22.479 25.92H28.079C28.8452 25.9208 29.5798 26.2254 30.1217 26.767C30.6636 27.3085 30.9687 28.0429 30.97 28.809C30.9704 29.4544 30.7526 30.081 30.352 30.587C30.3363 30.6127 30.3186 30.6371 30.299 30.66C30.237 30.73 30.183 30.793 30.119 30.86C29.8517 31.1287 29.5337 31.3418 29.1836 31.487C28.8335 31.6322 28.4581 31.7066 28.079 31.706V31.696Z" fill="#C09381" stroke="#C09381" stroke-width="0.5"/>
<path d="M22.8 39.056C21.2657 39.0574 19.7428 38.7911 18.3 38.269L7.80004 34.455C7.72321 34.4271 7.65264 34.3844 7.59234 34.3292C7.53205 34.274 7.48321 34.2075 7.44862 34.1334C7.41403 34.0594 7.39436 33.9792 7.39075 33.8976C7.38713 33.8159 7.39963 33.7344 7.42754 33.6575C7.45544 33.5807 7.49821 33.5101 7.55339 33.4498C7.60857 33.3895 7.67508 33.3407 7.74914 33.3061C7.82319 33.2715 7.90334 33.2519 7.98499 33.2482C8.06665 33.2446 8.14821 33.2571 8.22504 33.285L18.725 37.1C20.2694 37.6562 21.9113 37.8906 23.5496 37.789C25.1879 37.6874 26.7882 37.2518 28.252 36.509L42.505 29.23C41.7347 28.6147 40.8196 28.207 39.847 28.0458C38.8744 27.8846 37.8767 27.9752 36.949 28.309L30.116 30.796C30.027 30.8441 29.9273 30.8692 29.826 30.869C29.7003 30.8703 29.577 30.8334 29.4727 30.7632C29.3683 30.6929 29.2877 30.5927 29.2414 30.4758C29.1952 30.3588 29.1855 30.2305 29.2136 30.1079C29.2418 29.9853 29.3064 29.8741 29.399 29.789C29.4612 29.7299 29.5351 29.6846 29.616 29.656L36.53 27.139C37.6891 26.7222 38.9374 26.6177 40.1497 26.8361C41.3619 27.0545 42.4953 27.588 43.436 28.383L44.023 28.892C44.1 28.9587 44.1595 29.0433 44.1961 29.1383C44.2328 29.2333 44.2456 29.3359 44.2333 29.437C44.2211 29.5381 44.1842 29.6347 44.1259 29.7182C44.0676 29.8017 43.9897 29.8697 43.899 29.916L28.816 37.617C26.9518 38.5632 24.8906 39.0563 22.8 39.056Z" fill="#C09381" stroke="#C09381" stroke-width="0.5"/>
<path d="M8.01001 36.216H1.31001C1.22816 36.2161 1.14709 36.2001 1.07145 36.1689C0.9958 36.1376 0.927068 36.0917 0.869191 36.0338C0.811314 35.976 0.765429 35.9072 0.734167 35.8316C0.702905 35.7559 0.686881 35.6749 0.687013 35.593V22.046C0.687013 21.881 0.752545 21.7228 0.869192 21.6062C0.98584 21.4895 1.14405 21.424 1.30901 21.424H8.00901C8.17398 21.424 8.33219 21.4895 8.44883 21.6062C8.56548 21.7228 8.63101 21.881 8.63101 22.046V35.593C8.63114 35.6747 8.61519 35.7556 8.58405 35.8311C8.55291 35.9066 8.50721 35.9753 8.44954 36.0331C8.39187 36.091 8.32338 36.1369 8.24797 36.1683C8.17255 36.1997 8.09169 36.2159 8.01001 36.216ZM1.93101 34.971H7.38701V22.671H1.93101V34.971Z" fill="#C09381" stroke="#C09381" stroke-width="0.5"/>
<path d="M28.374 23.186C26.1786 23.186 24.0325 22.535 22.2072 21.3153C20.3818 20.0957 18.9591 18.3621 18.1189 16.3338C17.2788 14.3056 17.059 12.0737 17.4873 9.92053C17.9156 7.76734 18.9727 5.78951 20.5251 4.23714C22.0775 2.68478 24.0553 1.62761 26.2085 1.19931C28.3617 0.771015 30.5935 0.990833 32.6218 1.83097C34.65 2.6711 36.3836 4.09381 37.6033 5.9192C38.823 7.74458 39.474 9.89066 39.474 12.086C39.474 13.5437 39.1869 14.9871 38.6291 16.3338C38.0712 17.6805 37.2536 18.9042 36.2229 19.9349C35.1921 20.9656 33.9685 21.7833 32.6218 22.3411C31.2751 22.8989 29.8317 23.186 28.374 23.186ZM28.374 2.23903C26.4256 2.23903 24.5211 2.81678 22.9011 3.89922C21.2811 4.98166 20.0185 6.52018 19.2729 8.32021C18.5273 10.1202 18.3322 12.101 18.7123 14.0119C19.0924 15.9228 20.0306 17.678 21.4083 19.0557C22.786 20.4334 24.5412 21.3716 26.4522 21.7517C28.3631 22.1318 30.3438 21.9368 32.1438 21.1912C33.9438 20.4456 35.4824 19.1829 36.5648 17.563C37.6472 15.943 38.225 14.0384 38.225 12.09C38.225 9.47738 37.1871 6.97174 35.3397 5.12432C33.4923 3.2769 30.9866 2.23903 28.374 2.23903Z" fill="#C09381" stroke="#C09381" stroke-width="0.5"/>
<path d="M28.374 12.713C27.7041 12.692 27.0551 12.4741 26.5083 12.0866C25.9614 11.699 25.5407 11.159 25.2989 10.5338C25.057 9.90869 25.0047 9.22616 25.1483 8.57145C25.292 7.91674 25.6253 7.31884 26.1066 6.85239C26.588 6.38594 27.1961 6.0716 27.855 5.94861C28.5139 5.82563 29.1944 5.89944 29.8116 6.16084C30.4289 6.42224 30.9554 6.85964 31.3256 7.41845C31.6957 7.97726 31.8931 8.63272 31.893 9.30301C31.893 9.46797 31.8275 9.62618 31.7109 9.74283C31.5942 9.85948 31.436 9.92501 31.271 9.92501C31.1061 9.92501 30.9479 9.85948 30.8312 9.74283C30.7146 9.62618 30.649 9.46797 30.649 9.30301C30.6714 8.84823 30.557 8.39718 30.3206 8.00806C30.0841 7.61894 29.7365 7.3096 29.3225 7.11997C28.9085 6.93034 28.4473 6.86911 27.9982 6.94419C27.5491 7.01927 27.1328 7.22721 26.803 7.54118C26.4732 7.85515 26.2451 8.26074 26.1481 8.70561C26.0511 9.15048 26.0896 9.61422 26.2587 10.037C26.4278 10.4598 26.7197 10.8221 27.0968 11.0774C27.4738 11.3327 27.9187 11.4691 28.374 11.469C28.4557 11.469 28.5366 11.4851 28.6121 11.5164C28.6875 11.5476 28.7561 11.5934 28.8139 11.6512C28.8716 11.7089 28.9174 11.7775 28.9487 11.853C28.9799 11.9284 28.996 12.0093 28.996 12.091C28.996 12.1727 28.9799 12.2536 28.9487 12.329C28.9174 12.4045 28.8716 12.4731 28.8139 12.5308C28.7561 12.5886 28.6875 12.6344 28.6121 12.6657C28.5366 12.6969 28.4557 12.713 28.374 12.713Z" fill="#C09381" stroke="#C09381" stroke-width="0.5"/>
<path d="M28.374 18.293C27.4556 18.3062 26.5694 17.9546 25.9098 17.3154C25.2501 16.6761 24.8708 15.8015 24.855 14.883C24.855 14.7181 24.9206 14.5599 25.0372 14.4432C25.1539 14.3266 25.3121 14.261 25.477 14.261C25.642 14.261 25.8002 14.3266 25.9169 14.4432C26.0335 14.5599 26.099 14.7181 26.099 14.883C26.0765 15.3379 26.1907 15.789 26.427 16.1782C26.6633 16.5675 27.0109 16.877 27.4248 17.0668C27.8388 17.2566 28.3001 17.3179 28.7492 17.243C29.1984 17.168 29.6148 16.9602 29.9446 16.6462C30.2745 16.3323 30.5027 15.9267 30.5998 15.4818C30.6969 15.0369 30.6585 14.5732 30.4894 14.1503C30.3204 13.7275 30.0285 13.3651 29.6514 13.1098C29.2743 12.8544 28.8294 12.718 28.374 12.718C28.2091 12.718 28.0509 12.6525 27.9342 12.5359C27.8176 12.4192 27.752 12.261 27.752 12.096C27.752 11.9311 27.8176 11.7729 27.9342 11.6562C28.0509 11.5396 28.2091 11.474 28.374 11.474C28.8317 11.4584 29.2878 11.535 29.7152 11.6993C30.1426 11.8636 30.5326 12.1123 30.8618 12.4304C31.1911 12.7486 31.453 13.1299 31.6318 13.5514C31.8107 13.9729 31.9028 14.4261 31.9028 14.884C31.9028 15.3419 31.8107 15.7952 31.6318 16.2167C31.453 16.6382 31.1911 17.0194 30.8618 17.3376C30.5326 17.6558 30.1426 17.9045 29.7152 18.0688C29.2878 18.2331 28.8317 18.3097 28.374 18.294V18.293Z" fill="#C09381" stroke="#C09381" stroke-width="0.5"/>
<path d="M28.374 19.339C28.2091 19.339 28.0508 19.2735 27.9342 19.1568C27.8175 19.0402 27.752 18.882 27.752 18.717V5.471C27.752 5.38932 27.7681 5.30843 27.7994 5.23297C27.8306 5.1575 27.8764 5.08894 27.9342 5.03118C27.992 4.97342 28.0605 4.9276 28.136 4.89635C28.2115 4.86509 28.2923 4.849 28.374 4.849C28.4557 4.849 28.5366 4.86509 28.612 4.89635C28.6875 4.9276 28.7561 4.97342 28.8138 5.03118C28.8716 5.08894 28.9174 5.1575 28.9487 5.23297C28.9799 5.30843 28.996 5.38932 28.996 5.471V18.717C28.996 18.882 28.9305 19.0402 28.8138 19.1568C28.6972 19.2735 28.539 19.339 28.374 19.339Z" fill="#C09381" stroke="#C09381" stroke-width="0.5"/>
</svg>
