<svg width="49" height="31" viewBox="0 0 49 31" fill="none" xmlns="http://www.w3.org/2000/svg">
<path d="M45.189 13.323L43.959 8.40102C44.1255 8.36555 44.2749 8.27401 44.3821 8.1417C44.4893 8.00939 44.5478 7.84431 44.548 7.67403V6.88003C44.5472 6.05147 44.2177 5.25708 43.6318 4.6712C43.046 4.08532 42.2516 3.75582 41.423 3.75503H35.823V2.12302C35.8227 1.7152 35.6606 1.32416 35.3722 1.03579C35.0839 0.747416 34.6928 0.585287 34.285 0.585022H5.712C5.30418 0.585287 4.91314 0.747416 4.62476 1.03579C4.33639 1.32416 4.17426 1.7152 4.174 2.12302V15.613C4.174 15.8103 4.25239 15.9996 4.39191 16.1391C4.53144 16.2786 4.72068 16.357 4.918 16.357C5.11532 16.357 5.30456 16.2786 5.44409 16.1391C5.58361 15.9996 5.662 15.8103 5.662 15.613V2.12302C5.662 2.10976 5.66727 2.09705 5.67664 2.08767C5.68602 2.07829 5.69874 2.07303 5.712 2.07303H34.28C34.2933 2.07303 34.306 2.07829 34.3154 2.08767C34.3247 2.09705 34.33 2.10976 34.33 2.12302V15.614C34.33 15.8113 34.4084 16.0006 34.5479 16.1401C34.6874 16.2796 34.8767 16.358 35.074 16.358C35.2713 16.358 35.4606 16.2796 35.6001 16.1401C35.7396 16.0006 35.818 15.8113 35.818 15.614V14.771H44.6C45.114 14.7721 45.6145 14.9357 46.0298 15.2386C46.4451 15.5414 46.7539 15.9679 46.912 16.457H44.6C44.4027 16.457 44.2134 16.5354 44.0739 16.6749C43.9344 16.8145 43.856 17.0037 43.856 17.201V18.788C43.8568 19.406 44.1026 19.9984 44.5396 20.4354C44.9766 20.8724 45.569 21.1182 46.187 21.119H47.03V24.392H45.082C44.7626 23.4651 44.1619 22.661 43.3636 22.0918C42.5654 21.5225 41.6094 21.2166 40.629 21.2166C39.6486 21.2166 38.6926 21.5225 37.8944 22.0918C37.0961 22.661 36.4954 23.4651 36.176 24.392H35.818V18.792C35.818 18.5947 35.7396 18.4055 35.6001 18.2659C35.4606 18.1264 35.2713 18.048 35.074 18.048C34.8767 18.048 34.6874 18.1264 34.5479 18.2659C34.4084 18.4055 34.33 18.5947 34.33 18.792V24.392H18.894C18.5746 23.4651 17.9739 22.661 17.1756 22.0918C16.3774 21.5225 15.4214 21.2166 14.441 21.2166C13.4606 21.2166 12.5046 21.5225 11.7064 22.0918C10.9081 22.661 10.3074 23.4651 9.988 24.392H5.712C5.69874 24.392 5.68602 24.3868 5.67664 24.3774C5.66727 24.368 5.662 24.3553 5.662 24.342V22.705H8.886C9.08332 22.705 9.27256 22.6266 9.41209 22.4871C9.55161 22.3476 9.63 22.1583 9.63 21.961C9.63 21.7637 9.55161 21.5745 9.41209 21.4349C9.27256 21.2954 9.08332 21.217 8.886 21.217H1.744C1.54668 21.217 1.35744 21.2954 1.21791 21.4349C1.07839 21.5745 1 21.7637 1 21.961C1 22.1583 1.07839 22.3476 1.21791 22.4871C1.35744 22.6266 1.54668 22.705 1.744 22.705H4.174V24.342C4.17426 24.7498 4.33639 25.1409 4.62476 25.4293C4.91314 25.7176 5.30418 25.8798 5.712 25.88H9.731C9.731 25.897 9.731 25.913 9.731 25.93C9.731 27.1797 10.2274 28.3782 11.1111 29.2619C11.9948 30.1456 13.1933 30.642 14.443 30.642C15.6927 30.642 16.8912 30.1456 17.7749 29.2619C18.6586 28.3782 19.155 27.1797 19.155 25.93C19.155 25.913 19.155 25.897 19.155 25.88H35.918C35.918 25.897 35.918 25.913 35.918 25.93C35.918 27.1797 36.4144 28.3782 37.2981 29.2619C38.1818 30.1456 39.3803 30.642 40.63 30.642C41.8797 30.642 43.0782 30.1456 43.9619 29.2619C44.8456 28.3782 45.342 27.1797 45.342 25.93C45.342 25.913 45.342 25.897 45.342 25.88H47.774C47.9713 25.88 48.1606 25.8016 48.3001 25.6621C48.4396 25.5226 48.518 25.3333 48.518 25.136V17.2C48.5176 16.2627 48.1817 15.3565 47.5711 14.6454C46.9605 13.9342 46.1155 13.4652 45.189 13.323ZM35.818 5.24303H41.418C41.852 5.24356 42.2681 5.41619 42.5749 5.72308C42.8818 6.02996 43.0545 6.44603 43.055 6.88003V6.93002H35.818V5.24303ZM35.818 13.278V8.42303H42.429L43.644 13.284L35.818 13.278ZM14.441 29.154C13.8034 29.154 13.18 28.9649 12.6498 28.6107C12.1197 28.2564 11.7064 27.7529 11.4624 27.1638C11.2184 26.5747 11.1545 25.9265 11.2789 25.3011C11.4033 24.6757 11.7104 24.1012 12.1613 23.6503C12.6122 23.1994 13.1866 22.8924 13.812 22.768C14.4374 22.6436 15.0857 22.7074 15.6748 22.9514C16.2639 23.1955 16.7674 23.6087 17.1217 24.1389C17.4759 24.6691 17.665 25.2924 17.665 25.93C17.6642 26.7848 17.3243 27.6044 16.7198 28.2089C16.1154 28.8133 15.2958 29.1532 14.441 29.154ZM40.629 29.154C39.9914 29.154 39.368 28.9649 38.8378 28.6107C38.3077 28.2564 37.8944 27.7529 37.6504 27.1638C37.4064 26.5747 37.3426 25.9265 37.4669 25.3011C37.5913 24.6757 37.8984 24.1012 38.3493 23.6503C38.8002 23.1994 39.3746 22.8924 40 22.768C40.6254 22.6436 41.2737 22.7074 41.8628 22.9514C42.4519 23.1955 42.9554 23.6087 43.3097 24.1389C43.6639 24.6691 43.853 25.2924 43.853 25.93C43.8522 26.7848 43.5123 27.6044 42.9078 28.2089C42.3034 28.8133 41.4838 29.1532 40.629 29.154ZM47.029 19.631H46.186C45.9625 19.6308 45.7482 19.5419 45.5902 19.3838C45.4322 19.2258 45.3433 19.0115 45.343 18.788V17.945H47.029V19.631Z" fill="#C09381" stroke="#C09381" stroke-width="0.25"/>
<path d="M14.437 24.395C14.1328 24.395 13.8354 24.4852 13.5825 24.6542C13.3296 24.8232 13.1325 25.0634 13.0161 25.3445C12.8997 25.6255 12.8692 25.9347 12.9285 26.2331C12.9879 26.5314 13.1344 26.8054 13.3495 27.0205C13.5645 27.2356 13.8386 27.3821 14.1369 27.4415C14.4353 27.5008 14.7445 27.4704 15.0256 27.3539C15.3066 27.2375 15.5468 27.0404 15.7158 26.7875C15.8848 26.5346 15.975 26.2372 15.975 25.933C15.9747 25.5252 15.8126 25.1341 15.5242 24.8458C15.2359 24.5574 14.8448 24.3953 14.437 24.395Z" fill="#C09381" stroke="#C09381" stroke-width="0.25"/>
<path d="M40.629 24.395C40.3248 24.3948 40.0273 24.4848 39.7743 24.6537C39.5212 24.8226 39.3239 25.0627 39.2074 25.3438C39.0908 25.6248 39.0602 25.934 39.1194 26.2325C39.1787 26.5309 39.3251 26.805 39.5401 27.0202C39.7552 27.2354 40.0292 27.382 40.3276 27.4414C40.626 27.5008 40.9352 27.4704 41.2163 27.354C41.4974 27.2377 41.7377 27.0405 41.9067 26.7876C42.0758 26.5347 42.166 26.2372 42.166 25.933C42.1658 25.5254 42.0038 25.1345 41.7156 24.8461C41.4274 24.5578 41.0367 24.3955 40.629 24.395Z" fill="#C09381" stroke="#C09381" stroke-width="0.25"/>
<path d="M31.9 21.218H20.79C20.5927 21.218 20.4034 21.2964 20.2639 21.4359C20.1244 21.5754 20.046 21.7647 20.046 21.962C20.046 22.1593 20.1244 22.3486 20.2639 22.4881C20.4034 22.6276 20.5927 22.706 20.79 22.706H31.9C32.0973 22.706 32.2866 22.6276 32.4261 22.4881C32.5656 22.3486 32.644 22.1593 32.644 21.962C32.644 21.7647 32.5656 21.5754 32.4261 21.4359C32.2866 21.2964 32.0973 21.218 31.9 21.218Z" fill="#C09381" stroke="#C09381" stroke-width="0.25"/>
<path d="M12.854 18.044H3.33101C3.13369 18.044 2.94445 18.1224 2.80492 18.2619C2.66539 18.4015 2.58701 18.5907 2.58701 18.788C2.58701 18.9853 2.66539 19.1746 2.80492 19.3141C2.94445 19.4536 3.13369 19.532 3.33101 19.532H12.854C13.0513 19.532 13.2406 19.4536 13.3801 19.3141C13.5196 19.1746 13.598 18.9853 13.598 18.788C13.598 18.5907 13.5196 18.4015 13.3801 18.2619C13.2406 18.1224 13.0513 18.044 12.854 18.044Z" fill="#C09381" stroke="#C09381" stroke-width="0.25"/>
<path d="M26.871 7.94403C26.7315 7.80456 26.5423 7.7262 26.345 7.7262C26.1477 7.7262 25.9585 7.80456 25.819 7.94403L19.203 14.56L15.761 11.118C15.6924 11.0469 15.6103 10.9901 15.5195 10.951C15.4287 10.9119 15.331 10.8914 15.2322 10.8905C15.1334 10.8896 15.0353 10.9084 14.9438 10.9458C14.8523 10.9832 14.7692 11.0385 14.6993 11.1084C14.6294 11.1782 14.5742 11.2614 14.5368 11.3529C14.4993 11.4444 14.4805 11.5424 14.4814 11.6412C14.4823 11.7401 14.5029 11.8377 14.542 11.9285C14.5811 12.0193 14.6378 12.1014 14.709 12.17L18.677 16.138C18.8165 16.2775 19.0057 16.3559 19.203 16.3559C19.4003 16.3559 19.5895 16.2775 19.729 16.138L26.871 8.99603C27.0105 8.85651 27.0888 8.66731 27.0888 8.47003C27.0888 8.27275 27.0105 8.08355 26.871 7.94403Z" fill="#C09381" stroke="#C09381" stroke-width="0.25"/>
</svg>
